# xmcd
#
# Track frame offsets: 
#        150
#        16476
#        32492
#        52056
#        72243
#        90318
#        110817
#        131548
#        154764
#        169838
#        187919
#        217229
#        241552
#
# Disc length: 3414 seconds
#
# Revision: 2
# Processed by: cddbd v1.5.2PL0 Copyright (c) Steve Scherf et al.
# Submitted via: ExactAudioCopyFreeDBPlugin 1.0
#
DISCID=ac0d540d
DTITLE=John Campbelljohn - Weight Of The World
DYEAR=2006
DGENRE=Blues
TTITLE0=Autobahn John
TTITLE1=Weight Of The world
TTITLE2=Kathaline
TTITLE3=Sydney Steel
TTITLE4=You Give Me Strength
TTITLE5=Ice Cubes In Her Wine
TTITLE6=Waterfall
TTITLE7=How Does It Feel
TTITLE8=Mississippi Queen
TTITLE9=Light Of The End Of The Tunnel
TTITLE10=Little Wing
TTITLE11=That´s Just Fine
TTITLE12=Maybe I´m Just Old Fashioned
EXTD=
EXTT0=
EXTT1=
EXTT2=
EXTT3=
EXTT4=
EXTT5=
EXTT6=
EXTT7=
EXTT8=
EXTT9=
EXTT10=
EXTT11=
EXTT12=
PLAYORDER=
